<svg xmlns="http://www.w3.org/2000/svg" xmlns:xlink="http://www.w3.org/1999/xlink" viewBox="0 0 81.13 137.45">
  <defs>
    <style>
      .cls-1 {
        isolation: isolate;
      }

      .cls-2 {
        fill: url(#Sfumatura_senza_nome_168);
      }

      .cls-3 {
        fill: url(#Sfumatura_senza_nome_75);
      }

      .cls-4 {
        opacity: 0.43;
        fill: url(#Sfumatura_senza_nome_202);
      }

      .cls-5 {
        fill: url(#Sfumatura_senza_nome_27);
      }

      .cls-6 {
        fill: url(#Sfumatura_senza_nome_45);
      }

      .cls-7 {
        fill: url(#Sfumatura_senza_nome_66);
      }

      .cls-8 {
        fill: url(#Sfumatura_senza_nome_110);
      }

      .cls-9 {
        fill: url(#Sfumatura_senza_nome_129);
      }

      .cls-10 {
        mix-blend-mode: color-burn;
        fill: url(#Sfumatura_senza_nome_81);
      }

      .cls-11 {
        opacity: 0.25;
        fill: url(#Sfumatura_senza_nome_194);
      }

      .cls-12 {
        fill: url(#Sfumatura_senza_nome_203);
      }

      .cls-13 {
        opacity: 0.17;
        mix-blend-mode: soft-light;
        fill: url(#Sfumatura_senza_nome_187);
      }

      .cls-14 {
        font-size: 18.3px;
      }

      .cls-14, .cls-16 {
        fill: #f9f9f9;
        font-family: Roboto;
      }

      .cls-15 {
        font-weight: 700;
      }

      .cls-16 {
        font-size: 7.3px;
        font-style: italic;
      }
    </style>
    <linearGradient id="Sfumatura_senza_nome_168" data-name="Sfumatura senza nome 168" x1="45.9" y1="60.84" x2="99.98" y2="60.84" gradientTransform="translate(-14.79 26.6) rotate(-18.42)" gradientUnits="userSpaceOnUse">
      <stop offset="0" stop-color="#262262"/>
      <stop offset="0.5" stop-color="#662d91"/>
      <stop offset="0.67" stop-color="#642c8e"/>
      <stop offset="0.8" stop-color="#5c2a85"/>
      <stop offset="0.91" stop-color="#4e2675"/>
      <stop offset="1" stop-color="#3e2262"/>
    </linearGradient>
    <linearGradient id="Sfumatura_senza_nome_75" data-name="Sfumatura senza nome 75" x1="45.9" y1="60.84" x2="99.98" y2="60.84" gradientTransform="translate(-14.79 26.6) rotate(-18.42)" gradientUnits="userSpaceOnUse">
      <stop offset="0" stop-color="#17224d"/>
      <stop offset="0.1" stop-color="#30235b" stop-opacity="0.79"/>
      <stop offset="0.32" stop-color="#5b2572" stop-opacity="0.45"/>
      <stop offset="0.54" stop-color="#7a2682" stop-opacity="0.2"/>
      <stop offset="0.76" stop-color="#8c278c" stop-opacity="0.05"/>
      <stop offset="1" stop-color="#92278f" stop-opacity="0"/>
    </linearGradient>
    <linearGradient id="Sfumatura_senza_nome_202" data-name="Sfumatura senza nome 202" x1="45.9" y1="61.79" x2="90.77" y2="61.79" gradientTransform="translate(-14.79 26.6) rotate(-18.42)" gradientUnits="userSpaceOnUse">
      <stop offset="0" stop-color="#92278f" stop-opacity="0"/>
      <stop offset="0.05" stop-color="#942a8f" stop-opacity="0.16"/>
      <stop offset="0.13" stop-color="#982d90" stop-opacity="0.38"/>
      <stop offset="0.22" stop-color="#9b3090" stop-opacity="0.58"/>
      <stop offset="0.32" stop-color="#9d3390" stop-opacity="0.73"/>
      <stop offset="0.43" stop-color="#9f3591" stop-opacity="0.85"/>
      <stop offset="0.55" stop-color="#a03691" stop-opacity="0.94"/>
      <stop offset="0.71" stop-color="#a13791" stop-opacity="0.99"/>
      <stop offset="1" stop-color="#a13791"/>
    </linearGradient>
    <linearGradient id="Sfumatura_senza_nome_27" data-name="Sfumatura senza nome 27" x1="41.04" y1="42.98" x2="113.11" y2="42.98" gradientTransform="translate(-14.79 26.6) rotate(-18.42)" gradientUnits="userSpaceOnUse">
      <stop offset="0" stop-color="#1c75bc"/>
      <stop offset="0.5" stop-color="#00aeef"/>
      <stop offset="1" stop-color="#4fd5df"/>
    </linearGradient>
    <linearGradient id="Sfumatura_senza_nome_45" data-name="Sfumatura senza nome 45" x1="67.42" y1="116.94" x2="67.42" y2="88.16" gradientTransform="translate(-14.79 26.6) rotate(-18.42)" gradientUnits="userSpaceOnUse">
      <stop offset="0" stop-color="#da1c5c"/>
      <stop offset="0.5" stop-color="#9e1f63"/>
      <stop offset="1" stop-color="#9e1f63"/>
    </linearGradient>
    <linearGradient id="Sfumatura_senza_nome_66" data-name="Sfumatura senza nome 66" x1="67.57" y1="116.94" x2="67.57" y2="88.16" gradientTransform="translate(-14.79 26.6) rotate(-18.42)" gradientUnits="userSpaceOnUse">
      <stop offset="0" stop-color="#da1c5c"/>
      <stop offset="1" stop-color="#351840"/>
    </linearGradient>
    <linearGradient id="Sfumatura_senza_nome_110" data-name="Sfumatura senza nome 110" x1="55.84" y1="84.93" x2="106.59" y2="84.93" gradientTransform="translate(-14.79 26.6) rotate(-18.42)" gradientUnits="userSpaceOnUse">
      <stop offset="0" stop-color="#ee2a7b"/>
      <stop offset="0.5" stop-color="#da1c5c"/>
      <stop offset="1" stop-color="#9e1f63"/>
    </linearGradient>
    <linearGradient id="Sfumatura_senza_nome_129" data-name="Sfumatura senza nome 129" x1="55.84" y1="84.93" x2="106.66" y2="84.93" gradientTransform="translate(-14.79 26.6) rotate(-18.42)" gradientUnits="userSpaceOnUse">
      <stop offset="0" stop-color="#ee2a7b" stop-opacity="0"/>
      <stop offset="0.02" stop-color="#ee2b7b" stop-opacity="0.09"/>
      <stop offset="0.07" stop-color="#ef2d7a" stop-opacity="0.3"/>
      <stop offset="0.12" stop-color="#f02f79" stop-opacity="0.49"/>
      <stop offset="0.18" stop-color="#f13078" stop-opacity="0.65"/>
      <stop offset="0.23" stop-color="#f13278" stop-opacity="0.77"/>
      <stop offset="0.29" stop-color="#f13378" stop-opacity="0.87"/>
      <stop offset="0.35" stop-color="#f23377" stop-opacity="0.94"/>
      <stop offset="0.42" stop-color="#f23477" stop-opacity="0.99"/>
      <stop offset="0.5" stop-color="#f23477"/>
      <stop offset="0.56" stop-color="#f13477" stop-opacity="0.98"/>
      <stop offset="0.63" stop-color="#ec3376" stop-opacity="0.93"/>
      <stop offset="0.69" stop-color="#e53174" stop-opacity="0.84"/>
      <stop offset="0.76" stop-color="#db2e71" stop-opacity="0.72"/>
      <stop offset="0.82" stop-color="#ce2b6e" stop-opacity="0.57"/>
      <stop offset="0.89" stop-color="#bd276a" stop-opacity="0.37"/>
      <stop offset="0.96" stop-color="#ab2266" stop-opacity="0.15"/>
      <stop offset="1" stop-color="#9e1f63" stop-opacity="0"/>
    </linearGradient>
    <linearGradient id="Sfumatura_senza_nome_81" data-name="Sfumatura senza nome 81" x1="41.04" y1="42.98" x2="112.22" y2="42.98" gradientTransform="translate(-14.79 26.6) rotate(-18.42)" gradientUnits="userSpaceOnUse">
      <stop offset="0" stop-color="#d9e8bc"/>
      <stop offset="1" stop-color="#4fd5df"/>
    </linearGradient>
    <linearGradient id="Sfumatura_senza_nome_194" data-name="Sfumatura senza nome 194" x1="60.18" y1="73.95" x2="97.98" y2="8.48" gradientTransform="translate(-14.79 26.6) rotate(-18.42)" gradientUnits="userSpaceOnUse">
      <stop offset="0" stop-color="#1c75bc" stop-opacity="0"/>
      <stop offset="0.06" stop-color="#458ec5" stop-opacity="0.18"/>
      <stop offset="0.15" stop-color="#7db0d2" stop-opacity="0.43"/>
      <stop offset="0.24" stop-color="#abccdc" stop-opacity="0.63"/>
      <stop offset="0.32" stop-color="#d0e2e4" stop-opacity="0.79"/>
      <stop offset="0.39" stop-color="#eaf2ea" stop-opacity="0.91"/>
      <stop offset="0.45" stop-color="#f9fcee" stop-opacity="0.98"/>
      <stop offset="0.5" stop-color="#ffffef"/>
      <stop offset="0.59" stop-color="#fdffef" stop-opacity="0.99"/>
      <stop offset="0.66" stop-color="#f6fdee" stop-opacity="0.95"/>
      <stop offset="0.72" stop-color="#ecfaed" stop-opacity="0.89"/>
      <stop offset="0.77" stop-color="#dcf7ec" stop-opacity="0.8"/>
      <stop offset="0.82" stop-color="#c8f2ea" stop-opacity="0.69"/>
      <stop offset="0.87" stop-color="#afece8" stop-opacity="0.55"/>
      <stop offset="0.92" stop-color="#92e5e5" stop-opacity="0.38"/>
      <stop offset="0.96" stop-color="#71dde2" stop-opacity="0.19"/>
      <stop offset="1" stop-color="#4fd5df" stop-opacity="0"/>
    </linearGradient>
    <linearGradient id="Sfumatura_senza_nome_203" data-name="Sfumatura senza nome 203" x1="55.84" y1="84.93" x2="104" y2="84.93" gradientTransform="translate(-14.79 26.6) rotate(-18.42)" gradientUnits="userSpaceOnUse">
      <stop offset="0" stop-color="#ee2a7b" stop-opacity="0"/>
      <stop offset="0.25" stop-color="#d32673" stop-opacity="0.34"/>
      <stop offset="0.49" stop-color="#bc236c" stop-opacity="0.62"/>
      <stop offset="0.7" stop-color="#ac2167" stop-opacity="0.83"/>
      <stop offset="0.88" stop-color="#a21f64" stop-opacity="0.95"/>
      <stop offset="1" stop-color="#9e1f63"/>
    </linearGradient>
    <linearGradient id="Sfumatura_senza_nome_187" data-name="Sfumatura senza nome 187" x1="57.77" y1="84.93" x2="106.66" y2="84.93" gradientTransform="translate(-14.79 26.6) rotate(-18.42)" gradientUnits="userSpaceOnUse">
      <stop offset="0" stop-color="#ee2a7b" stop-opacity="0"/>
      <stop offset="0.03" stop-color="#f0478d" stop-opacity="0.14"/>
      <stop offset="0.08" stop-color="#f472a8" stop-opacity="0.34"/>
      <stop offset="0.13" stop-color="#f798bf" stop-opacity="0.51"/>
      <stop offset="0.18" stop-color="#f9b8d3" stop-opacity="0.66"/>
      <stop offset="0.24" stop-color="#fbd1e3" stop-opacity="0.79"/>
      <stop offset="0.3" stop-color="#fde6ef" stop-opacity="0.88"/>
      <stop offset="0.36" stop-color="#fef4f8" stop-opacity="0.95"/>
      <stop offset="0.42" stop-color="#fffcfd" stop-opacity="0.99"/>
      <stop offset="0.5" stop-color="#fff"/>
      <stop offset="0.56" stop-color="#fdfbfc" stop-opacity="0.98"/>
      <stop offset="0.62" stop-color="#f9f0f5" stop-opacity="0.93"/>
      <stop offset="0.69" stop-color="#f1dee8" stop-opacity="0.85"/>
      <stop offset="0.75" stop-color="#e5c4d6" stop-opacity="0.74"/>
      <stop offset="0.82" stop-color="#d7a3bf" stop-opacity="0.59"/>
      <stop offset="0.88" stop-color="#c57aa2" stop-opacity="0.41"/>
      <stop offset="0.95" stop-color="#b14b82" stop-opacity="0.2"/>
      <stop offset="1" stop-color="#9e1f63" stop-opacity="0"/>
    </linearGradient>
  </defs>
  <title>logo</title>
  <g class="cls-1">
    <g id="Capa_1" data-name="Capa 1">
      <g>
        <g>
          <path class="cls-2" d="M51.3,58.16s5.83,3,33.57-3.61c6.2-1.47,10.31-2.34,14.19-1.76,0,0,3.44,3.59-4.23,6.89s-18.39,11.2-18.39,11.2-15.49,4-16.94,3.86-7.8.67-11.32-5S51.3,58.16,51.3,58.16Z" transform="translate(-39.02 -6.99)"/>
          <path class="cls-3" d="M51.3,58.16s5.83,3,33.57-3.61C91,53.1,95.18,52.22,99.06,52.8c0,0,3.44,3.59-4.23,6.89s-18.39,11.2-18.39,11.2-15.49,4-16.94,3.86-7.8.67-11.32-5S51.3,58.16,51.3,58.16Z" transform="translate(-39.02 -6.99)"/>
          <path class="cls-4" d="M68.59,66.82c-16.45,4.14-16,.26-16,0.26s-1.87-3-3.66-6.15c-1.49,2.25-2.81,5.58-.79,8.82,3.52,5.66,9.88,4.88,11.32,5s16.94-3.86,16.94-3.86a136.84,136.84,0,0,1,15.87-10C86.36,62.13,78,64.46,68.59,66.82Z" transform="translate(-39.02 -6.99)"/>
          <path class="cls-5" d="M97,7S110.3,22,83.85,41.67C55.48,62.73,48.13,75,59.79,74.74c0,0-16.35,4-18.89-11.63-1.5-9.22,4.56-14.76,12.13-21C53,42.1,79.24,23.39,97,7Z" transform="translate(-39.02 -6.99)"/>
          <path class="cls-6" d="M83.1,86.91s-9,15.33,7.55,27.51a0.18,0.18,0,0,1-.16.32,67.17,67.17,0,0,1-10.21-4.59C69.95,104.43,77.91,92.57,83.1,86.91Z" transform="translate(-39.02 -6.99)"/>
          <path class="cls-7" d="M83.1,86.91s-9,15.33,7.55,27.51a0.18,0.18,0,0,1-.16.32c-2.62-.86-8.78-3.19-11.38-5.63C70.5,101,77.91,92.57,83.1,86.91Z" transform="translate(-39.02 -6.99)"/>
          <path class="cls-8" d="M108.71,60.81c-0.56-7.19-10.35-8.1-10.35-8.1,5.89,3.22-12.26,7.09-25.53,21.94C63.43,85.19,67.17,96,67.17,96h0c2.94,9.86,13.07,14.16,13.07,14.16C64,86.73,109.69,74.07,108.71,60.81Z" transform="translate(-39.02 -6.99)"/>
          <path class="cls-9" d="M108.71,60.81c-0.27-7.29-10.35-8.1-10.35-8.1,5.89,3.22-12.26,7.09-25.53,21.94C63.43,85.19,67.17,96,67.17,96h0c2.94,9.86,13.07,14.16,13.07,14.16C64,86.73,108.51,74.59,108.71,60.81Z" transform="translate(-39.02 -6.99)"/>
          <path class="cls-10" d="M68.79,39.78C99.34,18,97,7,97,7,81.29,21.93,53,42.1,53,42.1c-7.88,6.53-13.62,11.79-12.13,21,2.54,15.65,18.89,11.63,18.89,11.63C40.77,78.31,37.23,62.3,68.79,39.78Z" transform="translate(-39.02 -6.99)"/>
          <path class="cls-11" d="M97,7h0s2.38,11-28.17,32.79C44.65,57,41,70.42,49.2,74.18a18.51,18.51,0,0,0,7.49,1,29.62,29.62,0,0,0,3.11-.42c-11.66.24-4.31-12,24.06-33.07C110.3,22,97,7,97,7Z" transform="translate(-39.02 -6.99)"/>
          <path class="cls-12" d="M101.57,62.52c5.43-4,2.64-7.35,2.36-7.66a14.24,14.24,0,0,0-5.56-2.15c5.89,3.22-12.26,7.09-25.53,21.94C63.43,85.19,67.17,96,67.17,96h0c2.94,9.86,13.07,14.16,13.07,14.16C50.23,92.58,95.69,66.85,101.57,62.52Z" transform="translate(-39.02 -6.99)"/>
          <path class="cls-13" d="M98.36,52.71a14.24,14.24,0,0,1,5.56,2.15c0.28,0.31,3.06,3.66-2.36,7.66-5.88,4.33-52,29.19-21.29,47.63C64,86.73,108.51,74.59,108.71,60.81,108.44,53.52,98.36,52.71,98.36,52.71Z" transform="translate(-39.02 -6.99)"/>
        </g>
        <g>
          <text class="cls-14" transform="translate(0 128.06)">V<tspan x="11.17" y="0">OR</tspan><tspan class="cls-15" x="35.53" y="0">TECH</tspan></text>
          <text class="cls-16" transform="translate(11.64 135.47)">Inn<tspan x="9.78" y="0">ov</tspan><tspan x="17.05" y="0">ation System</tspan></text>
        </g>
      </g>
    </g>
  </g>
</svg>
